<svg width="16" height="15" viewBox="0 0 16 15" fill="none" xmlns="http://www.w3.org/2000/svg">
<path d="M15.4799 1.43211C15.4834 0.64635 14.8482 0.0111225 14.0624 0.0145857L4.00464 0.0589123C3.21888 0.0623751 2.57803 0.703226 2.57457 1.48899C2.5711 2.27475 3.20633 2.90998 3.9921 2.90652L10.6208 2.87416L0.935423 12.5595C0.376652 13.1183 0.372689 14.0172 0.926558 14.5711C1.48043 15.125 2.37934 15.121 2.93811 14.5622L12.6203 4.88L12.5943 11.5024C12.5908 12.2882 13.2261 12.9234 14.0118 12.9199C14.7976 12.9165 15.4384 12.2756 15.4419 11.4898L15.4862 1.43208L15.4799 1.43211Z" fill="#36839B"/>
</svg>
